<?xml version="1.0" encoding="utf-8"?>
<!DOCTYPE svg PUBLIC "-//W3C//DTD SVG 1.1//EN" "http://www.w3.org/Graphics/SVG/1.1/DTD/svg11.dtd">
<svg xmlns="http://www.w3.org/2000/svg" xmlns:xlink="http://www.w3.org/1999/xlink" version="1.1" baseProfile="full" width="890" height="141" viewBox="0 0 890.00 141.00" enable-background="new 0 0 890.00 141.00" xml:space="preserve">
	<g>
		<path fill="#FFE5B4" fill-opacity="1" stroke-width="0.2" stroke-linejoin="round" d="M 9.81251,15.3375C 8.04584,15.3375 6.53751,14.7125 5.28751,13.4625C 4.03751,12.2125 3.41251,10.7042 3.41251,8.93752C 3.41251,7.17084 4.03751,5.66251 5.28751,4.41251C 6.53751,3.16251 8.04584,2.53751 9.81251,2.53751L 73.7875,2.53751C 75.5208,2.53751 77.0125,3.16251 78.2625,4.41251C 79.5125,5.66251 80.1375,7.17084 80.1375,8.93752L 80.1375,54.4875C 80.1375,56.2542 79.5125,57.7625 78.2625,59.0125C 77.0125,60.2625 75.5208,60.8875 73.7875,60.8875L 29.8125,60.8875L 77.4625,94.8625C 78.9292,95.8625 79.8042,97.2333 80.0875,98.975C 80.3708,100.717 79.9917,102.304 78.95,103.738C 77.9083,105.171 76.5292,106.046 74.8125,106.363C 73.0958,106.679 71.5042,106.313 70.0375,105.262L 6.53751,59.9625C 4.45418,58.7125 3.41251,56.8875 3.41251,54.4875C 3.41251,52.7208 4.03751,51.2125 5.28751,49.9625C 6.53751,48.7125 8.04584,48.0875 9.81251,48.0875L 67.3875,48.0875L 67.3875,15.3375L 9.81251,15.3375 Z "/>
		<path fill="#FFE5B4" fill-opacity="1" stroke-width="0.2" stroke-linejoin="round" d="M 102.612,15.3375C 100.846,15.3375 99.3375,14.7125 98.0875,13.4625C 96.8375,12.2125 96.2125,10.7042 96.2125,8.93752C 96.2125,7.17084 96.8375,5.66251 98.0875,4.41251C 99.3375,3.16251 100.846,2.53751 102.612,2.53751L 166.587,2.53751C 168.321,2.53751 169.812,3.16251 171.063,4.41251C 172.313,5.66251 172.938,7.17084 172.938,8.93752L 172.938,54.4875C 172.938,56.2542 172.313,57.7625 171.063,59.0125C 169.812,60.2625 168.321,60.8875 166.587,60.8875L 109.013,60.8875L 109.013,100.038C 109.013,101.804 108.388,103.313 107.138,104.563C 105.888,105.813 104.379,106.438 102.612,106.438C 100.846,106.438 99.3375,105.813 98.0875,104.563C 96.8375,103.313 96.2125,101.804 96.2125,100.038L 96.2125,54.4875C 96.2125,52.7208 96.8375,51.2125 98.0875,49.9625C 99.3375,48.7125 100.846,48.0875 102.612,48.0875L 160.187,48.0875L 160.187,15.3375L 102.612,15.3375 Z "/>
		<path fill="#FFE5B4" fill-opacity="1" stroke-width="0.2" stroke-linejoin="round" d="M 328.187,2.53751C 329.921,2.53751 331.413,3.16251 332.663,4.41251C 333.913,5.66251 334.538,7.15834 334.538,8.90001C 334.538,10.6417 333.913,12.1375 332.663,13.3875C 331.413,14.6375 329.921,15.2625 328.187,15.2625L 270.612,15.2625L 270.612,54.4875C 270.612,56.2542 269.987,57.7625 268.737,59.0125C 267.487,60.2625 265.979,60.8875 264.212,60.8875C 262.446,60.8875 260.938,60.2625 259.688,59.0125C 258.438,57.7625 257.813,56.2542 257.813,54.4875L 257.813,8.93752C 257.813,7.17084 258.438,5.66251 259.688,4.41251C 260.938,3.16251 262.446,2.53751 264.212,2.53751L 328.187,2.53751 Z M 321.788,54.4875C 321.788,52.7208 322.413,51.2125 323.663,49.9625C 324.913,48.7125 326.413,48.0875 328.163,48.0875C 329.913,48.0875 331.413,48.7125 332.663,49.9625C 333.913,51.2125 334.538,52.7208 334.538,54.4875L 334.538,100.038C 334.538,101.804 333.913,103.313 332.663,104.563C 331.413,105.813 329.921,106.438 328.187,106.438L 264.212,106.438C 262.446,106.438 260.938,105.813 259.688,104.563C 258.438,103.313 257.813,101.817 257.813,100.075C 257.813,98.3333 258.438,96.8208 259.688,95.5375C 260.938,94.2542 262.446,93.6125 264.212,93.6125L 321.788,93.6125L 321.788,54.4875 Z "/>
		<path fill="#FFE5B4" fill-opacity="1" stroke-width="0.2" stroke-linejoin="round" d="M 406.587,54.4875L 361.813,54.4875L 361.813,93.7125L 406.587,93.7125L 406.587,54.4875 Z M 355.412,41.6625L 412.988,41.6625L 412.988,41.7375C 414.754,41.7375 416.25,42.35 417.475,43.575C 418.7,44.8 419.313,46.3042 419.313,48.0875L 419.313,99.4875C 419.363,99.7375 419.387,99.9208 419.387,100.038C 419.387,101.804 418.762,103.313 417.512,104.563C 416.262,105.813 414.754,106.438 412.988,106.438L 355.412,106.438C 353.646,106.438 352.137,105.813 350.887,104.563C 349.637,103.313 349.012,101.804 349.012,100.038L 349.012,48.0875C 349.012,46.3042 349.637,44.7875 350.887,43.5375C 352.137,42.2875 353.646,41.6625 355.412,41.6625 Z "/>
		<path fill="#FFE5B4" fill-opacity="1" stroke-width="0.2" stroke-linejoin="round" d="M 445.012,132.063C 445.012,133.829 444.387,135.337 443.137,136.587C 441.887,137.837 440.379,138.462 438.612,138.462C 436.846,138.462 435.337,137.837 434.087,136.587C 432.837,135.337 432.212,133.829 432.212,132.063L 432.212,100.038C 432.212,98.3208 432.837,96.8375 434.087,95.5875C 435.337,94.3375 436.846,93.7125 438.612,93.7125L 486.587,93.7125C 488.354,93.7125 489.862,94.3375 491.112,95.5875C 492.362,96.8375 492.987,98.3333 492.987,100.075C 492.987,101.817 492.362,103.313 491.112,104.563C 489.862,105.813 488.354,106.438 486.587,106.438L 445.012,106.438L 445.012,132.063 Z M 438.612,54.4875C 436.846,54.4875 435.337,53.8625 434.087,52.6125C 432.837,51.3625 432.212,49.85 432.212,48.075C 432.212,46.3 432.837,44.8 434.087,43.575C 435.337,42.35 436.846,41.7375 438.612,41.7375L 496.188,41.7375C 497.904,41.7375 499.387,42.35 500.637,43.575C 501.887,44.8 502.512,46.3 502.512,48.075C 502.512,49.85 501.9,51.3625 500.675,52.6125C 499.45,53.8625 497.954,54.4875 496.188,54.4875L 438.612,54.4875 Z "/>
		<path fill="#FFE5B4" fill-opacity="1" stroke-width="0.2" stroke-linejoin="round" d="M 528.212,100.038C 528.212,101.804 527.587,103.313 526.337,104.563C 525.087,105.813 523.579,106.438 521.812,106.438C 520.046,106.438 518.537,105.813 517.287,104.563C 516.037,103.313 515.412,101.804 515.412,100.038L 515.412,24.0875C 515.412,22.3208 516.037,20.8125 517.287,19.5625C 518.537,18.3125 520.046,17.6875 521.812,17.6875C 523.579,17.6875 525.087,18.3125 526.337,19.5625C 527.587,20.8125 528.212,22.3208 528.212,24.0875L 528.212,41.7375L 547.362,41.7375C 549.129,41.7375 550.638,42.35 551.888,43.575C 553.138,44.8 553.763,46.3 553.763,48.075C 553.763,49.85 553.138,51.3625 551.888,52.6125C 550.638,53.8625 549.129,54.4875 547.362,54.4875L 528.212,54.4875L 528.212,100.038 Z "/>
		<path fill="#FFE5B4" fill-opacity="1" stroke-width="0.2" stroke-linejoin="round" d="M 593.162,51.4375C 592.229,49.9208 591.971,48.3042 592.387,46.5875C 592.804,44.8708 593.754,43.5583 595.237,42.65C 596.721,41.7417 598.321,41.4833 600.037,41.875C 601.754,42.2667 603.087,43.2125 604.037,44.7125L 636.062,96.7375C 636.946,98.2042 637.192,99.7958 636.8,101.512C 636.408,103.229 635.458,104.558 633.95,105.5C 632.442,106.442 630.829,106.704 629.112,106.288C 627.396,105.871 626.062,104.904 625.112,103.387L 593.162,51.4375 Z M 567.537,51.4375C 566.604,49.9208 566.346,48.3042 566.762,46.5875C 567.179,44.8708 568.142,43.5583 569.65,42.65C 571.158,41.7417 572.775,41.4833 574.5,41.875C 576.225,42.2667 577.554,43.2125 578.487,44.7125L 610.437,96.7375C 611.054,97.7375 611.379,98.7958 611.412,99.9125C 611.446,101.029 611.187,102.096 610.637,103.113C 610.087,104.129 609.321,104.921 608.337,105.488C 606.821,106.438 605.204,106.704 603.487,106.288C 601.771,105.871 600.471,104.904 599.587,103.387L 567.537,51.4375 Z "/>
		<path fill="#FFE5B4" fill-opacity="1" stroke-width="0.2" stroke-linejoin="round" d="M 720.112,100.113C 720.112,101.829 719.5,103.313 718.275,104.563C 717.05,105.813 715.554,106.438 713.787,106.438C 712.021,106.438 710.512,105.813 709.262,104.563C 708.012,103.313 707.387,101.829 707.387,100.113L 707.387,89.6375L 685.912,104.962C 684.712,105.946 683.329,106.438 681.762,106.438L 656.212,106.438C 654.446,106.438 652.937,105.813 651.687,104.563C 650.437,103.313 649.812,101.829 649.812,100.113L 649.812,48.0875C 649.812,46.3042 650.437,44.7875 651.687,43.5375C 652.937,42.2875 654.446,41.6625 656.212,41.6625L 713.787,41.6625L 713.787,41.7375C 715.554,41.7375 717.05,42.35 718.275,43.575C 719.5,44.8 720.112,46.3042 720.112,48.0875L 720.112,76.9875C 720.162,77.1875 720.162,77.3958 720.112,77.6125L 720.112,100.113 Z M 707.387,74.0125L 707.387,54.4875L 662.612,54.4875L 662.612,93.7125L 679.812,93.7125L 707.387,74.0125 Z "/>
		<path fill="#FFE5B4" fill-opacity="1" stroke-width="0.2" stroke-linejoin="round" d="M 745.812,100.038C 745.812,101.804 745.187,103.313 743.937,104.563C 742.687,105.813 741.179,106.438 739.412,106.438C 737.646,106.438 736.137,105.813 734.887,104.563C 733.637,103.313 733.012,101.804 733.012,100.038L 733.012,69.6375C 733.012,67.5042 733.871,65.8125 735.587,64.5625L 760.887,43.2375C 762.037,42.1875 763.396,41.6625 764.962,41.6625L 796.987,41.6625C 798.754,41.6625 800.262,42.2875 801.512,43.5375C 802.762,44.7875 803.387,46.3 803.387,48.075C 803.387,49.85 802.762,51.3625 801.512,52.6125C 800.262,53.8625 798.754,54.4875 796.987,54.4875L 767.312,54.4875L 745.812,72.6125L 745.812,100.038 Z "/>
		<path fill="#FFE5B4" fill-opacity="1" stroke-width="0.2" stroke-linejoin="round" d="M 880.188,93.7125C 881.954,93.7125 883.462,94.3375 884.712,95.5875C 885.962,96.8375 886.587,98.3333 886.587,100.075C 886.587,101.817 885.962,103.313 884.712,104.563C 883.462,105.813 881.954,106.438 880.188,106.438L 822.612,106.438C 820.846,106.438 819.337,105.813 818.087,104.563C 816.837,103.313 816.212,101.804 816.212,100.038L 816.212,48.0875C 816.212,46.3042 816.837,44.7875 818.087,43.5375C 819.337,42.2875 820.846,41.6625 822.612,41.6625L 880.188,41.6625C 881.954,41.6625 883.462,42.2875 884.712,43.5375C 885.962,44.7875 886.587,46.3042 886.587,48.0875L 886.587,69.6375C 886.587,71.6708 885.813,73.3375 884.262,74.6375L 864.188,93.7125L 880.188,93.7125 Z M 829.012,93.7125L 845.663,93.7125L 873.788,66.9875L 873.788,54.4875L 829.012,54.4875L 829.012,93.7125 Z "/>
	</g>
</svg>
