<?xml version="1.0" encoding="utf-8"?>
<!-- Generator: Adobe Illustrator 16.0.3, SVG Export Plug-In . SVG Version: 6.00 Build 0)  -->
<!DOCTYPE svg PUBLIC "-//W3C//DTD SVG 1.1//EN" "http://www.w3.org/Graphics/SVG/1.1/DTD/svg11.dtd">
<svg version="1.1"
	 id="svg2" xmlns:dc="http://purl.org/dc/elements/1.1/" xmlns:rdf="http://www.w3.org/1999/02/22-rdf-syntax-ns#" xmlns:svg="http://www.w3.org/2000/svg" xmlns:cc="http://creativecommons.org/ns#"
	 xmlns="http://www.w3.org/2000/svg" xmlns:xlink="http://www.w3.org/1999/xlink" x="0px" y="0px" width="342.024px"
	 height="141.009px" viewBox="17.597 24.399 342.024 141.009" enable-background="new 17.597 24.399 342.024 141.009"
	 xml:space="preserve">
<g>
	<defs>
		<rect id="SVGID_1_" x="-221.1" y="-445.608" width="13332.001" height="13331.998"/>
	</defs>
	<clipPath id="SVGID_2_">
		<use xlink:href="#SVGID_1_"  overflow="visible"/>
	</clipPath>
</g>
<g>
	<path fill="#FFFFFF" d="M293.146,91.982c2.161-1.725,36.559-29.158,37.015-29.525c1.021-0.375,15.832-6.641,29.46-12.421H232.002
		c0,0,4.595,8.748,9.499,18.083c-1.733,0.79-3.421,1.719-5.035,2.803c0.055-0.211,0.394-1.501,0.394-1.501l-1.451-4.326h-47.629
		c0,0-0.01,0.034-0.01,0.036c-0.005,0-12.843-0.024-20.247-0.04c-0.905-1.601-2.004-3.117-3.33-4.516
		c-9.088-9.598-20.681-12.636-29.969-13.3c1.191-0.166,2.424-0.288,3.701-0.345c14.478-0.659,22.226,6.802,22.304,6.877
		c0.717,0.709,1.85,0.782,2.653,0.169s1.035-1.719,0.542-2.598c-0.558-0.997-14.076-24.446-47.493-26.779
		c-17.503-1.219-33.727,3.132-48.212,12.937c-12.153,8.228-17.679,16.947-19.665,20.732c-1.274-0.709-3.25-2.032-5.66-4.443
		c-4.168-4.167-8.2-7.722-11.751-5.501c-1.684,1.05-2.208,4.232-2.208,7.729c0,4.853,1.008,10.315,1.316,11.548
		c1.124,4.506,2.932,10.313,3.696,12.726c-1.098,1.271-2.729,3.693-3.039,7.226c-0.042,0.485-0.063,0.973-0.063,1.463
		c0,5.439,2.411,11.121,3.524,13.466c-0.264,0.467-0.529,1.021-0.751,1.779c-0.203,0.696-0.287,1.388-0.32,1.925
		c-0.972,0.953-3.211,3.075-6.24,5.431c-1.798,1.396-3.547,2.396-4.955,3.2c-2.311,1.321-3.982,2.274-4.005,4.178
		c0,0.002,0,0.021,0,0.031c0,2.682,4.449,5.179,9.943,5.572c3.3,0.237,5.885-0.129,7.141-0.359c1.157,0.641,3.576,1.876,6.06,2.446
		c2.409,0.556,4.728,0.581,5.924,0.553c0.762,0.555,1.875,1.084,3.326,1.579c-1.663,0.821-3.175,1.64-4.019,2.667
		c-0.649,0.786-0.983,1.701-0.983,2.619c0,0.597,0.142,1.198,0.428,1.769c0.978,1.941,3.526,3.203,6.192,3.067
		c4.483-0.221,8.804-4.037,10.498-5.715c2.048,0.167,6.823,0.334,11.673-1.123c4.537-1.361,8.066-3.323,11.439-6.361
		c2.132-1.916,3.717-3.948,4.848-5.68c1.676,0.072,3.301,0.097,4.809,0.076c0.694,1.035,1.359,2.418,1.899,4.269
		c0.482,1.647,0.698,3.24,0.698,4.77c0,9.658-8.577,16.792-12.71,19.666c-12.304,8.559-29.335,12.444-29.508,12.483
		c-0.931,0.208-1.582,1.037-1.582,1.979c0,0.057,0.002,0.111,0.008,0.169c0.083,1.009,0.899,1.801,1.91,1.855
		c0.698,0.036,17.308,0.853,36.435-3.606c25.602-5.968,43.193-18.671,50.872-36.736c1.133-2.669,1.88-5.239,2.329-7.71
		c0.848-0.359,1.699-0.764,2.553-1.203c-2.671,10.326-9.634,19.152-9.75,19.299c-0.297,0.372-0.445,0.82-0.445,1.266
		c0,0.506,0.188,1.007,0.557,1.397c0.699,0.735,1.835,0.842,2.656,0.247c0.593-0.427,9.908-7.239,17.833-18.164l17.291,0.013v-0.003
		c1.358,0,27.167,0.016,40.182,0.026c-8.768,7.128-15.631,12.71-15.631,12.71h138.584c-11.012-4.089-29.244-10.771-31.995-11.665
		C306.376,119.759,294.371,94.552,293.146,91.982z"/>
	<g>
		<g>
			<path fill="#0C1A6F" d="M206.178,130.835h2.967h55.583l-3.725-1.982c0,0-5.574-2.938-7.618-4.017
				c1.913-1.48,9.039-6.998,10.554-8.168c0.992,1.91,7.354,14.167,7.354,14.167h56.13c0,0-20.712-7.821-21.812-7.97
				c-0.467-0.975-14.308-30.046-14.983-31.467c1.253-1.001,38.075-30.371,38.513-30.719c0.565-0.081,20.651-8.616,20.651-8.616
				h-51.64c0,0-13.529,10.997-15.319,12.449c-0.759-1.516-2.563-5.116-3.219-6.423c1.636-0.725,9.056-4.008,9.056-4.008l3.791-2.018
				h-57.103c0,0,19.493,37.1,20.263,38.567C254.324,91.687,206.178,130.835,206.178,130.835z"/>
			<g>
				<g>
					<path fill="#FFFFFF" d="M217.801,126.295c10.622-8.637,43.364-35.265,43.364-35.265s-13.367-25.453-17.889-34.058
						c10.35,0,26.45,0,28.93,0c1.026,2.05,7.509,14.984,7.509,14.984s15.863-12.895,18.431-14.984c2.516,0,18.385,0,28.595,0
						c-10.775,8.597-42.963,34.272-42.963,34.272s12.589,26.435,16.688,35.051c-9.772,0-23.798,0-26.214,0
						c-1.068-2.063-8.569-16.525-8.569-16.525s-18.746,14.517-21.345,16.525C241.963,126.295,227.649,126.295,217.801,126.295z"/>
				</g>
			</g>
		</g>
		<g>
			<path fill="#800000" d="M243.685,124.779h0.239c0,0,21.182-16.401,22.435-17.373c0.715,1.374,9.013,17.373,9.013,17.373h22.675
				c0,0-15.68-32.924-16.144-33.9c0.85-0.682,40.357-32.19,40.357-32.19h-23.407c0,0-18.282,14.86-19.549,15.89
				c-0.709-1.42-7.957-15.89-7.957-15.89h-25.261c0,0,16.744,31.876,17.263,32.861c-0.873,0.71-40.866,33.229-40.866,33.229h1.979
				H243.685z"/>
			
				<linearGradient id="SVGID_3_" gradientUnits="userSpaceOnUse" x1="2275.8347" y1="-55.3547" x2="2275.8347" y2="-128.7449" gradientTransform="matrix(0.8775 0 0 0.8775 -1724.6722 172.173)">
				<stop  offset="0" style="stop-color:#FF3300"/>
				<stop  offset="0.2734" style="stop-color:#F62A02"/>
				<stop  offset="0.7179" style="stop-color:#DE1206"/>
				<stop  offset="1" style="stop-color:#CB000A"/>
			</linearGradient>
			<path fill="url(#SVGID_3_)" d="M226.47,123.371c2.836-2.304,38.69-31.457,38.69-31.457s-15.705-29.893-16.72-31.823
				c2.062,0,21.272,0,22.067,0c0.373,0.739,8.354,16.684,8.354,16.684s20.144-16.372,20.521-16.684c0.443,0,15.648,0,18.893,0
				c-2.893,2.308-38.089,30.381-38.089,30.381s14.764,31.011,15.663,32.898c-1.955,0-18.817,0-19.595,0
				c-0.375-0.726-9.393-18.108-9.393-18.108s-23.015,17.822-23.388,18.108C243.052,123.371,229.609,123.371,226.47,123.371z"/>
		</g>
	</g>
	<g>
		<path fill="#0E3192" d="M19.622,119.02c-0.011,1.06,3.085,3.202,8.063,3.557c4.253,0.305,7.347-0.473,7.347-0.473
			s3.081,1.897,6.164,2.606c3.078,0.712,6.161,0.475,6.161,0.475s0.458,0.904,4.149,2.016c3.69,1.112,5.332,0.354,5.332,0.354
			s-1.717,0.965-3.792,2.015c-2.072,1.053-4.621,2.122-5.512,3.203c-1.658,2.014,0.893,4.3,3.972,4.143
			c4.741-0.233,9.838-5.803,9.838-5.803s5.927,0.828,11.851-0.952c4.597-1.378,7.777-3.322,10.667-5.923
			c4.741-4.266,6.638-9.244,6.638-9.244s5.614-0.078,8.217,8.845c3.117,10.67-3.482,20.188-12.799,26.667
			c-12.794,8.897-30.222,12.799-30.222,12.799s67.202,3.554,85.333-39.111c9.865-23.203-10.308-38.754-10.308-38.754
			s6.883-0.887,15.288,9.246c13.868,16.71-6.401,41.953-6.401,41.953s21.687-15.643,27.024-37.687
			c3.263-13.499,4.566-28.024-3.912-36.98c-17.082-18.04-44.09-11.731-44.09-11.731s8.184-4.833,19.2-5.333
			c15.646-0.711,23.824,7.464,23.824,7.464s-13.159-23.466-45.867-25.748c-21.131-1.474-36.633,5.62-46.936,12.593
			C53.446,49.645,49.017,60.948,49.017,60.948s-3.318-0.95-8.058-5.691c-4.741-4.741-7.35-6.4-9.245-5.213
			c-1.897,1.184-1.42,11.376,0,17.067c1.421,5.687,4.029,13.748,4.029,13.748s-2.924,2.381-3.318,6.873
			c-0.591,6.756,3.792,14.933,3.792,14.933s-0.683,0.546-1.155,2.164c-0.313,1.066-0.266,2.224-0.266,2.224
			s-2.729,2.842-6.996,6.162C23.539,116.532,19.64,117.671,19.622,119.02z"/>
		<path fill="#FFFFFF" d="M60.998,121.839c0.195-1.069,0.934-2.702,2.341-4.225c1.928-2.091,2.554-2.758,3.111-4.834
			c0.313-1.155,0.008-2.661-0.568-3c-1.311-0.777-4.23-1.449-6.088-2.484c-3.226-1.798-5.092-3.085-6.375-4.824
			c-1.653-2.243-1.749-4.772,0.138-5.008c2.257-0.285,7.396,3.562,9.211,4.735c-0.216-0.983-1.129-2.844-1.449-3.258
			c-5.251-6.738-12.849-14.351-17.824-11.894c-1.36,0.674-2.632,1.964-3.01,3.352c-2.609,9.356,8.288,18.802,13.101,22.305
			c1.178,0.857,3.214,2.37,3.891,2.807c2.166,1.381,3.503,3.502,1.952,5.685L60.998,121.839z"/>
		<path fill="#FFFFFF" d="M50.587,122.761c-0.198,0.362-0.938,0.328-5.184-1.167c-0.816,0.055,0.141,1.273,1.146,2.059
			c1.001,0.784,2.611,1.866,3.701,2.351c2.744,1.223,4.688,1.295,5.446,1.264c1.048-0.041,2.534-1.019,1.955-1.019
			c-0.389-0.002-1.949-0.359-2.924-0.649c-0.582-0.174-2.124-0.792-2.969-1.563C51.194,123.517,50.587,122.761,50.587,122.761z"/>
	</g>
	<g>
		<path fill="#FFFFFF" d="M272.458,75.086c0-2.14-0.873-4.681-1.053-5.035c-0.823-1.639-2.581-2.81-4.946-3.298
			c-1.59-0.324-9.208-1.195-14.462-0.744c-5.902,0.507-11.674,2.921-16.822,6.867c0.356-1.35,0.903-3.432,0.903-3.432l-1.223-3.652
			h-46.591c0,0-0.008,0.03-0.008,0.036c-0.232,0-25.359-0.045-25.359-0.045l-0.099,0.371c0,0-0.013,0.05-0.032,0.126h-0.063
			l-0.162,0.62c0,0-0.849,3.221-1.441,5.462c-4.113-4.746-10.853-7.05-19.169-6.448c-4.684,0.335-9.721,2.004-14.298,4.655
			c-0.031-0.375-0.094-1.1-0.094-1.1l-6.411-1.66c-0.019-0.005-4.879-1.061-4.879-1.061c-3.703-0.573-7.701-1.056-12.017-0.747
			c-6.067,0.436-13.05,1.672-18.856,7.562c-1.439,1.456-2.708,3.19-3.764,5.108c-1.084,1.917-1.949,4.026-2.533,6.236
			c0,0.018-0.459,2.083-0.459,2.083c-0.211,1.2-0.313,2.308-0.313,3.327c0,1.833,0.375,3.495,1.087,4.961
			c0.016,0.059,0.36,1.132,0.532,1.667c-0.318,0.587-8.773,16.249-8.773,16.249l0.005,0.008c0,0.002-0.005,0.01-0.005,0.01
			l2.314,3.738l0.412,0.161c0.308,0.12,1.707,0.572,6.742,1.374c5.155,0.815,12.513,1.178,17.118,0.842
			c5.846-0.426,11.684-3.044,16.015-7.192c0,0,0.707-0.804,1.181-1.345c0.18,0.252,0.362,0.499,0.555,0.736
			c4.475,5.838,11.916,7.943,17.23,7.902c2.119-0.021,9.416-0.535,17.391-5.541c-0.26,0.99-0.49,1.858-0.49,1.858l1.063,3.169h0.05
			l0.169,0.5h6.504l17.538,0.014c0-0.006,47.555,0.025,47.555,0.025h0.383c0,0,1.736-6.588,2.202-8.342
			c0.521,0.803,1.113,1.537,1.764,2.224c2.394,2.688,5.604,4.561,9.685,5.493c5.361,1.22,10.962,0.292,15.901-0.526
			c0.011,0,1.178-0.196,1.178-0.196l5.142-0.783l4.4-0.683l-0.034-6.696c-0.141-4.568-0.321-9.866-0.706-15.073
			c0-0.003,0-0.014,0-0.014c0.119-0.235,2.111-4.11,2.111-4.11c-0.006,0.013,4.623-8.377,4.623-8.377l0.579-1.047
			c0,0-0.037,0.011-0.04,0.011c0.512-0.842,1.217-2.085,2.364-4.128C272.327,76.621,272.458,75.92,272.458,75.086z"/>
		<path fill="#020716" d="M270.271,70.646c-0.636-1.269-2.069-2.19-4.029-2.592h-0.002c-1.546-0.317-8.96-1.16-14.079-0.721
			c-7.081,0.61-13.823,3.821-19.222,9.009c0.907-3.44,1.807-6.852,1.807-6.852l-0.794-2.369h-44.611c0,0-0.394,1.481-0.712,2.685
			c-0.042-0.172-0.067-0.282-0.067-0.282h-0.229c-0.266-1.122-0.563-2.369-0.563-2.369l-23.798-0.045l-0.162,0.621
			c0,0-1.3,4.92-2.02,7.654c-3.477-5.85-10.509-8.812-19.708-8.146c-5.345,0.381-10.853,2.395-15.543,5.494l-0.188-2.213l-5.5-1.424
			c-0.128-0.03-4.827-1.049-4.827-1.049c-3.578-0.553-7.459-1.02-11.642-0.719c-5.817,0.417-12.51,1.591-18.004,7.167
			c-2.695,2.728-4.78,6.5-5.864,10.625c-0.01,0.035-0.453,2.052-0.453,2.052c-0.196,1.121-0.294,2.168-0.294,3.148
			c0,1.822,0.367,3.391,1.058,4.759c0.141,0.696,0.351,1.348,0.626,1.96c-1.546,2.858-8.708,16.129-8.708,16.129l1.673,2.708
			c0.125,0.05,1.353,0.488,6.469,1.301c5.064,0.803,12.293,1.158,16.813,0.826c5.543-0.401,11.082-2.888,15.194-6.825
			c0.72-0.683,1.447-1.579,2.184-2.596c3.73,7.029,11.694,9.57,17.688,9.52c5.215-0.043,12.945-2.087,19.662-7.325
			c-0.67,2.53-1.308,4.944-1.308,4.944l0.794,2.369h5.552l16.896,0.012c0,0,0.279-1.05,0.32-1.207
			c0.037,0.149,0.295,1.205,0.295,1.205l46.941,0.029c0,0,1.865-7.07,2.778-10.519c1.53,4.034,4.884,8.256,12.189,9.93
			c5.104,1.162,10.573,0.252,15.395-0.546c0.05-0.008,1.173-0.196,1.173-0.196c0.036-0.007,5.157-0.786,5.157-0.786
			c0.004,0,3.269-0.505,3.269-0.505l-0.028-5.552c-0.139-4.529-0.317-9.776-0.701-14.984c0,0.002-0.016-0.202-0.028-0.387
			c0.192-0.373,2.279-4.438,2.279-4.438c0.004-0.002,4.647-8.414,4.647-8.414c-0.008,0.012-0.008,0.012,2.903-5.172
			C271.708,74.922,270.483,71.059,270.271,70.646z"/>
		<g>
			<g>
				<path fill="#0C1A6F" d="M162.459,78.849c0.55-0.161,1.019-0.628,1.159-1.162c0,0,1.908-7.232,2.252-8.522
					c2.09,0.005,19.229,0.039,20.542,0.042c0.246,1.038,1.197,5.02,1.197,5.02c0.119,0.502,0.618,0.764,1.193,0.634
					c0.578-0.128,1.092-0.612,1.24-1.174c0,0,0.793-3.006,1.188-4.51c2.143,0,39.055,0,40.48,0
					c-0.531,2.017-3.367,12.76-3.367,12.76c-0.151,0.57,0.119,1.062,0.644,1.18c0.527,0.121,1.165-0.164,1.538-0.681
					c5.418-7.57,13.38-12.329,21.855-13.056c4.941-0.423,12.21,0.421,13.513,0.688c1.499,0.307,2.557,0.977,2.907,1.834
					c0.196,0.489,0.158,1.027-0.123,1.64c0.01-0.039,0.026-0.057,0.05-0.088l-2.933,5.209c-1.566,2.739-3.188,5.564-4.665,8.457
					l-2.379,4.634c-0.113,0.225-0.17,0.487-0.154,0.706l0.044,0.599c0.38,5.196,0.556,10.408,0.693,14.888
					c0-0.021,0.008,2.08,0.016,3.511c-0.581,0.09-1.17,0.182-1.17,0.182c0.008,0-2.58,0.389-2.58,0.389l-1.785,0.273
					c-0.37,0.055-0.696,0.123-0.995,0.212c0.062-0.016,0.108-0.071,0.166-0.081l-1.123,0.187c-4.652,0.775-9.922,1.65-14.662,0.571
					c-6.592-1.509-10.545-5.387-11.755-11.521c-0.099-0.52-0.594-0.801-1.179-0.675c-0.586,0.122-1.115,0.612-1.264,1.178
					c0,0-2.527,9.578-3.049,11.561c-2.166,0-21.33,0-21.33,0c0.008-0.025-20.362-0.039-20.362-0.039
					c-0.003,0-1.191,0.003-2.004,0.011c-0.227-0.902-0.756-3.08-0.756-3.08c-0.125-0.499-0.617-0.756-1.193-0.626
					c-0.581,0.133-1.092,0.615-1.238,1.178c0,0-0.375,1.424-0.669,2.531c-2.075-0.003-15.051-0.014-15.051-0.014s-1.973,0-3.263,0
					c0.503-1.902,2.494-9.418,2.494-9.418c0.141-0.529-0.083-1.001-0.555-1.155c-0.47-0.153-1.074,0.045-1.486,0.49
					c-6.86,7.378-16.085,10.049-21.903,10.097c-5.796,0.047-13.651-2.471-16.714-9.714c-0.156-0.373-0.537-0.57-0.998-0.519
					c-0.451,0.05-0.91,0.336-1.183,0.754c-0.931,1.394-1.778,2.454-2.606,3.247c-3.698,3.536-8.687,5.775-13.698,6.141
					c-4.405,0.32-11.436-0.031-16.362-0.809c-2.655-0.422-4.188-0.735-5.066-0.936c1.113-2.057,8.124-15.056,8.124-15.056
					c0.063-0.11,0.107-0.216,0.133-0.324c0.094-0.349,0.035-0.683-0.167-0.916c-1.733-1.976-2.27-4.699-1.634-8.32
					c0.01-0.031,0.433-1.963,0.433-1.963c0.975-3.682,2.835-7.072,5.231-9.493c4.896-4.974,11.06-6.039,16.45-6.424
					c3.985-0.288,7.73,0.17,11.181,0.704c0.988,0.151,2.554,0.492,4.66,1.014l0,0c0,0,2,0.515,3.321,0.856
					c-0.133,0.233-3.276,6.022-3.276,6.022c-0.31,0.573-0.19,1.183,0.287,1.431c0.479,0.245,1.175,0.057,1.632-0.442
					c4.996-5.448,12.62-9.151,19.888-9.674c9.5-0.681,16.234,2.545,18.955,9.087C161.414,78.809,161.914,79.003,162.459,78.849z
					 M261.136,92.287c0.006,0,0.003,0.005,0.003,0.005S261.136,92.284,261.136,92.287z M261.139,92.293L261.139,92.293
					L261.139,92.293z"/>
			</g>
			<g>
				<g>
					
						<linearGradient id="SVGID_4_" gradientUnits="userSpaceOnUse" x1="674.7644" y1="-4934.6484" x2="697.9127" y2="-4810.8955" gradientTransform="matrix(0.2503 0.0463 -0.1155 0.2624 -488.938 1336.6987)">
						<stop  offset="0" style="stop-color:#FFFF4D"/>
						<stop  offset="0.3278" style="stop-color:#EFD03A"/>
						<stop  offset="1" style="stop-color:#CB660F"/>
					</linearGradient>
					<path fill="url(#SVGID_4_)" d="M257.007,108.595c-0.141-4.677-0.313-9.667-0.686-14.738c-0.021-0.266-0.194-0.461-0.456-0.506
						c-0.27-0.042-0.576,0.068-0.803,0.289c-1.379,1.342-2.745,2.463-3.936,3.245c-2.2,1.431-5.894,1.979-7.691,0.477
						c-1.657-1.395-1.274-3.307-0.656-4.669c1.55-3.438,6.064-7.052,9.852-7.889c1.693-0.374,3.945-0.338,5.081,1.974
						c0.113,0.235,0.381,0.346,0.681,0.285c0.303-0.058,0.584-0.275,0.729-0.559c1.51-2.949,3.162-5.833,4.762-8.621l2.291-4.03
						c0.111-0.198,0.144-0.415,0.086-0.592c-0.06-0.185-0.198-0.31-0.391-0.357c-4.765-1.175-8.59-1.465-13.665-1.032
						c-10.998,0.938-18.827,8.576-22.282,16.427c-0.351,0.797-0.654,1.597-0.915,2.391c-2.695,8.262-0.767,17.667,9.643,20.041
						c4.29,0.979,9.296,0.144,13.711-0.589l3.77-0.582c0.222-0.036,0.452-0.163,0.614-0.346
						C256.91,109.032,257.01,108.805,257.007,108.595z"/>
					
						<linearGradient id="SVGID_5_" gradientUnits="userSpaceOnUse" x1="441.4246" y1="-4891.0127" x2="464.5541" y2="-4767.3604" gradientTransform="matrix(0.2503 0.0463 -0.1155 0.2624 -488.938 1336.6987)">
						<stop  offset="0" style="stop-color:#FFFF4D"/>
						<stop  offset="0.3278" style="stop-color:#EFD03A"/>
						<stop  offset="1" style="stop-color:#CB660F"/>
					</linearGradient>
					<path fill="url(#SVGID_5_)" d="M206.242,72.427c0.112-0.416-0.142-0.754-0.561-0.754h-11.585c-0.375,0-0.753,0.268-0.907,0.622
						c-0.021,0.045-0.036,0.089-0.046,0.132c0,0-3.276,12.397-4.465,16.907c-1.001-4.191-4.114-17.216-4.114-17.216
						c-0.063-0.256-0.281-0.418-0.563-0.418l-15.27-0.027c-0.201,0-0.417,0.078-0.594,0.219c-0.182,0.143-0.31,0.333-0.362,0.536
						l-3.263,12.362l-4.498,16.984l-2.296,8.65c-0.058,0.2-0.024,0.394,0.081,0.533c0.104,0.144,0.273,0.222,0.477,0.222
						l11.788,0.008c0.203,0,0.417-0.074,0.592-0.218c0.141-0.109,0.252-0.251,0.32-0.404c0.019-0.042,0.031-0.084,0.044-0.128
						c0,0,2.752-10.422,3.885-14.728c1.479,6.109,3.683,14.96,3.709,15.062c0.063,0.252,0.282,0.408,0.563,0.408l16.076,0.011
						c0.2,0,0.412-0.081,0.595-0.221c0.18-0.145,0.31-0.334,0.361-0.532L206.242,72.427z"/>
					
						<linearGradient id="SVGID_6_" gradientUnits="userSpaceOnUse" x1="282.0437" y1="-4861.3984" x2="305.2042" y2="-4737.5806" gradientTransform="matrix(0.2503 0.0463 -0.1155 0.2624 -488.938 1336.6987)">
						<stop  offset="0" style="stop-color:#FFFF4D"/>
						<stop  offset="0.3278" style="stop-color:#EFD03A"/>
						<stop  offset="1" style="stop-color:#CB660F"/>
					</linearGradient>
					<path fill="url(#SVGID_6_)" d="M142.063,71.781c-6.831,0.489-14.019,4.101-18.312,9.204c-2.94,3.486-6.393,9.728-6.44,15.846
						c-0.042,4.531,1.624,8.281,4.813,10.842c2.864,2.306,6.925,3.557,11.418,3.518c8.241-0.069,18.872-4.748,24.04-15.048
						c0.174-0.354,0.344-0.715,0.505-1.084c1.619-3.681,2.481-8.01,2.179-11.101C159.428,75.442,152.798,71.002,142.063,71.781z"/>
					
						<linearGradient id="SVGID_7_" gradientUnits="userSpaceOnUse" x1="567.0173" y1="-4914.501" x2="590.1465" y2="-4790.8506" gradientTransform="matrix(0.2503 0.0463 -0.1155 0.2624 -488.938 1336.6987)">
						<stop  offset="0" style="stop-color:#FFFF4D"/>
						<stop  offset="0.3278" style="stop-color:#EFD03A"/>
						<stop  offset="1" style="stop-color:#CB660F"/>
					</linearGradient>
					<path fill="url(#SVGID_7_)" d="M228.611,72.427c0.109-0.416-0.139-0.754-0.558-0.754h-13.6c-0.201,0-0.414,0.078-0.59,0.219
						c-0.181,0.143-0.312,0.334-0.366,0.536l-10.039,38.042c-0.053,0.2-0.021,0.391,0.083,0.533
						c0.104,0.142,0.273,0.219,0.474,0.219h13.6c0.42,0,0.847-0.338,0.956-0.752L228.611,72.427z"/>
					
						<linearGradient id="SVGID_8_" gradientUnits="userSpaceOnUse" x1="140.2009" y1="-4834.8408" x2="163.4139" y2="-4710.7422" gradientTransform="matrix(0.2503 0.0463 -0.1155 0.2624 -488.938 1336.6987)">
						<stop  offset="0" style="stop-color:#FFFF4D"/>
						<stop  offset="0.3278" style="stop-color:#EFD03A"/>
						<stop  offset="1" style="stop-color:#CB660F"/>
					</linearGradient>
					<path fill="url(#SVGID_8_)" d="M112.974,88.645c-1.431-1.289-4.649-1.723-7.493-2.098c-1.678-0.23-4.209-0.566-4.467-1.036
						c0.117-0.892,0.271-1.423,0.401-1.723c0.078-0.177,0.153-0.284,0.208-0.341c0.855-0.941,7.767-0.782,12.833,0
						c0.367,0.053,0.792-0.183,0.987-0.555c1.413-2.669,2.867-5.34,4.439-8.155c0.064-0.073,0.117-0.156,0.155-0.24
						c0.003-0.011,0.016-0.03,0.022-0.043c0.171-0.385,0.023-0.765-0.329-0.868c-0.016-0.001-0.201-0.045-0.201-0.045
						c-2.075-0.519-3.586-0.85-4.494-0.988c-3.302-0.505-6.865-0.937-10.549-0.673l0,0c-4.757,0.34-10.165,1.243-14.207,5.341
						c-2.343,2.377-4.068,5.932-4.728,9.761c-1.444,8.218,4.061,8.942,9.888,9.708l1.272,0.118c1.246,0.08,2.315,0.156,2.841,0.864
						c0.193,0.264-0.276,0.918-0.558,1.194c-1.249,1.204-8.22,1.029-12.466,0.375c-0.365-0.052-0.787,0.18-0.983,0.553
						c-0.614,1.137-4.743,8.988-4.811,9.231c-0.112,0.383,0.073,0.711,0.433,0.766l0.188,0.034c1.874,0.313,3.12,0.516,4.73,0.652
						l0.235,0.014c3.826,0.306,7.777,0.624,12.025,0.313c4.256-0.31,8.467-2.181,11.559-5.131c3.023-2.893,4.821-6.584,5.207-10.676
						C115.369,92.296,114.65,90.159,112.974,88.645z"/>
				</g>
				<g>
					<g>
						<g>
							
								<linearGradient id="SVGID_9_" gradientUnits="userSpaceOnUse" x1="672.5417" y1="-247.384" x2="672.5417" y2="-319.4375" gradientTransform="matrix(0.533 0 -0.1407 0.533 -153.1719 241.9587)">
								<stop  offset="0" style="stop-color:#FFFF00"/>
								<stop  offset="1" style="stop-color:#FF9900"/>
							</linearGradient>
							<path fill="url(#SVGID_9_)" d="M239.05,109.684c-9.82-2.244-11.647-11.131-9.099-18.94
								c2.665-8.172,10.497-16.851,21.976-17.832c4.904-0.419,8.478-0.157,13.039,0.942c-0.303,0.534-2.116,3.719-2.116,3.719
								c-1.507,2.63-3.052,5.35-4.495,8.133c-1.13-1.815-3.146-2.534-5.789-1.949c-4.173,0.925-9.148,4.92-10.871,8.724
								c-1.067,2.363-0.771,4.398,0.815,5.738c2.141,1.79,6.354,1.176,8.956-0.52c1.136-0.739,2.412-1.798,3.702-3.009
								c0.343,4.826,0.517,9.655,0.64,13.859c-0.595,0.094-3.448,0.533-3.448,0.533C248.041,109.804,243.148,110.616,239.05,109.684
								z"/>
							
								<linearGradient id="SVGID_10_" gradientUnits="userSpaceOnUse" x1="554.0671" y1="-247.5505" x2="554.0671" y2="-319.2351" gradientTransform="matrix(0.533 0 -0.1407 0.533 -153.1719 241.9587)">
								<stop  offset="0" style="stop-color:#FFFF00"/>
								<stop  offset="1" style="stop-color:#FF9900"/>
							</linearGradient>
							<path fill="url(#SVGID_10_)" d="M205.009,72.712c-0.156,0.596-9.713,36.813-9.869,37.404c-0.576,0-15.237-0.01-15.589-0.01
								c-0.075-0.325-4.344-17.733-4.344-17.733c-0.032-0.122-0.157-0.19-0.297-0.155c-0.148,0.033-0.276,0.151-0.313,0.291
								c0,0-4.491,17.024-4.644,17.607c-0.56,0-10.626-0.01-11.189-0.01c0.152-0.563,6.714-25.333,6.714-25.333
								s3.028-11.479,3.182-12.061c0.573,0.003,14.425,0.032,14.78,0.032c0.081,0.326,4.754,19.901,4.754,19.901
								c0.029,0.125,0.154,0.189,0.297,0.159c0.146-0.035,0.273-0.156,0.31-0.295c0,0,5.069-19.207,5.224-19.796
								C194.584,72.712,204.451,72.712,205.009,72.712z"/>
							
								<linearGradient id="SVGID_11_" gradientUnits="userSpaceOnUse" x1="472.9812" y1="-247.5486" x2="472.9812" y2="-318.0236" gradientTransform="matrix(0.533 0 -0.1407 0.533 -153.1719 241.9587)">
								<stop  offset="0" style="stop-color:#FFFF00"/>
								<stop  offset="1" style="stop-color:#FF9900"/>
							</linearGradient>
							<path fill="url(#SVGID_11_)" d="M118.309,96.551c0.05-5.805,3.329-11.738,6.13-15.057c4.042-4.806,10.845-8.211,17.326-8.67
								c10.217-0.743,16.529,3.442,17.316,11.477l0,0c0.321,3.175-0.737,7.939-2.562,11.583
								c-5.22,10.409-15.546,14.173-22.799,14.235C126.558,110.176,118.226,106.663,118.309,96.551z"/>
							
								<linearGradient id="SVGID_12_" gradientUnits="userSpaceOnUse" x1="617.9656" y1="-247.5461" x2="617.9656" y2="-319.2293" gradientTransform="matrix(0.533 0 -0.1407 0.533 -153.1719 241.9587)">
								<stop  offset="0" style="stop-color:#FFFF00"/>
								<stop  offset="1" style="stop-color:#FF9900"/>
							</linearGradient>
							<path fill="url(#SVGID_12_)" d="M227.378,72.712c-0.152,0.596-9.721,36.847-9.877,37.436c-0.568,0-12.432,0-12.997,0
								c0.156-0.589,9.721-36.84,9.877-37.436C214.947,72.712,226.809,72.712,227.378,72.712z"/>
							
								<linearGradient id="SVGID_13_" gradientUnits="userSpaceOnUse" x1="455.9236" y1="-282.3816" x2="487.6472" y2="-282.3816" gradientTransform="matrix(0.533 0 -0.1407 0.533 -153.1719 241.9587)">
								<stop  offset="0" style="stop-color:#FFFF4D"/>
								<stop  offset="0.3278" style="stop-color:#EFD03A"/>
								<stop  offset="1" style="stop-color:#CB660F"/>
							</linearGradient>
							<path fill="url(#SVGID_13_)" d="M141.927,83.391c-3.289,0.48-8.981,4.205-11.395,8.293c-1.368,2.313-1.459,4.385-0.263,5.99
								c1.212,1.632,3.18,2.21,6.01,1.768c3.743-0.592,9.333-4.946,10.886-8.475l0,0c0.957-2.188,0.889-4.299-0.179-5.794
								C145.951,83.728,144.106,83.078,141.927,83.391z"/>
						</g>
					</g>
					
						<linearGradient id="SVGID_14_" gradientUnits="userSpaceOnUse" x1="400.821" y1="-248.658" x2="400.821" y2="-317.6176" gradientTransform="matrix(0.533 0 -0.1407 0.533 -153.1719 241.9587)">
						<stop  offset="0" style="stop-color:#FFFF00"/>
						<stop  offset="1" style="stop-color:#FF9900"/>
					</linearGradient>
					<path fill="url(#SVGID_14_)" d="M99.581,99.493c0.544-0.544,1.417-1.774,0.826-2.583c-0.737-0.995-2.111-1.089-3.438-1.175
						l-1.21-0.11c-5.874-0.773-10.513-1.386-9.218-8.759c0.61-3.518,2.228-6.898,4.339-9.042c2.94-2.979,6.922-4.448,13.315-4.904
						l0,0c3.583-0.256,7.076,0.167,10.321,0.666c0.857,0.13,2.307,0.447,4.277,0.938c-0.299,0.556-3.996,7.358-4.25,7.825
						c-1.72-0.242-11.864-1.562-13.74,0.499c-0.634,0.676-0.866,1.916-0.993,2.918c0.034,1.127,2.301,1.432,5.17,1.813
						c2.718,0.363,5.796,0.773,7.052,1.906c1.486,1.347,2.125,3.253,1.901,5.674c-0.36,3.794-2.01,7.195-4.785,9.846
						c-2.843,2.719-6.743,4.441-10.69,4.73c-4.158,0.3-8.067-0.013-11.846-0.313l-0.258-0.025c-1.532-0.12-2.757-0.318-4.524-0.616
						c0.649-1.253,3.094-5.976,4.439-8.47C87.9,100.526,97.322,101.661,99.581,99.493z"/>
				</g>
				<path fill="#0C1A6F" d="M131.218,96.932c-0.985-1.326-0.907-2.979,0.237-4.913c2.166-3.679,7.443-7.155,10.357-7.573
					c1.827-0.267,3.37,0.271,4.225,1.474c0.894,1.246,0.94,3.02,0.133,4.867c-1.332,3.048-6.544,7.104-9.785,7.612
					C133.931,98.787,132.24,98.306,131.218,96.932z"/>
			</g>
		</g>
	</g>
	<g>
		<path fill="#FFFFFF" d="M338.782,130.801v-5.147h-1.825v-1.044h4.897v1.044h-1.822v5.147H338.782z"/>
		<path fill="#FFFFFF" d="M343.52,130.801v-6.191h1.873l1.113,4.222l1.11-4.222h1.885v6.191h-1.163l-0.003-4.876l-1.238,4.876
			h-1.198l-1.215-4.876l-0.007,4.876H343.52z"/>
	</g>
</g>
</svg>
