<?xml version="1.0" standalone="no"?>
<!DOCTYPE svg PUBLIC "-//W3C//DTD SVG 20010904//EN"
 "http://www.w3.org/TR/2001/REC-SVG-20010904/DTD/svg10.dtd">
<svg version="1.0" xmlns="http://www.w3.org/2000/svg"
 width="512.000000pt" height="512.000000pt" viewBox="0 0 512.000000 512.000000"
 preserveAspectRatio="xMidYMid meet">
<metadata>
Created by potrace 1.11, written by Peter Selinger 2001-2013
</metadata>
<g transform="translate(0.000000,512.000000) scale(0.100000,-0.100000)"
fill="#000000" stroke="none">
<path d="M0 2560 l0 -2560 2560 0 2560 0 0 2560 0 2560 -2560 0 -2560 0 0
-2560z m1493 933 c23 -3 50 -18 68 -35 l29 -30 0 -458 0 -458 -29 -30 c-18
-17 -45 -32 -68 -35 -21 -4 -209 -7 -417 -7 l-379 0 429 -306 c236 -168 437
-315 447 -326 11 -13 17 -37 17 -68 0 -40 -5 -53 -30 -78 -32 -33 -69 -44
-109 -32 -15 4 -295 199 -623 434 -556 397 -598 429 -609 464 -14 48 6 102 47
129 26 17 65 18 561 21 l533 3 0 289 0 289 -533 3 c-497 3 -535 4 -561 21 -84
55 -61 184 36 207 39 9 1136 13 1191 3z m1718 -16 c54 -37 54 -35 54 -507 0
-472 0 -470 -54 -507 -24 -17 -70 -18 -563 -21 l-538 -3 0 -374 0 -373 -31
-31 c-25 -26 -38 -31 -78 -31 -55 0 -88 20 -107 66 -21 49 -20 859 0 909 31
72 8 70 608 73 l538 3 0 289 0 289 -538 3 c-501 3 -540 4 -566 21 -84 55 -61
184 36 207 18 5 299 8 623 7 545 -2 592 -3 616 -20z m1646 -3 c58 -43 62 -140
6 -184 -25 -20 -37 -20 -564 -20 l-539 0 0 -352 c0 -211 -4 -368 -10 -390 -15
-52 -51 -78 -111 -78 -40 0 -52 5 -78 31 l-31 31 0 458 0 458 30 31 c17 16 43
32 58 34 15 2 293 4 619 3 584 -1 592 -1 620 -22z m6 -824 c15 -12 31 -38 37
-58 15 -55 12 -847 -3 -891 -7 -19 -25 -44 -40 -55 -28 -21 -38 -21 -595 -24
-312 -2 -591 0 -619 3 -70 9 -113 49 -113 105 0 50 16 85 49 107 24 17 69 18
564 21 l537 3 0 370 0 371 34 34 c29 29 41 34 79 34 29 0 53 -7 70 -20z"/>
</g>
</svg>
